#!OML:ASF X:\für Bonn\!DataBase\2005_08_12_Daniel\c3d\Daniel.ASF
:FULLY-SPECIFIED
:DEGREES
215
root -0.343752 17.6141 0.193955 -29.2042 -83.9761 19.0493
lowerback 9.64242 0.429632 1.30304
upperback -3.7769 0.339247 -3.99116
thorax -9.44342 -0.0852143 -5.08248
lowerneck 13.1991 -2.42742 1.52486
upperneck 6.79122 -3.35606 0.477601
head -0.0612061 -1.79271 0.0251954
rclavicle -3.37934e-015 8.74653e-015
rhumerus -102.876 -178.769 111.081
rradius 17.491
rwrist 31.1679
rhand -14.6671 370.026
rfingers 7.12502
rthumb 11.4858 -19.6391
lclavicle -3.37934e-015 8.74653e-015
lhumerus -135.361 206.844 -107.815
lradius 79.1244
lwrist 19.4342
lhand -21.2747 362.704
lfingers 7.12502
lthumb 5.10913 32.6226
rfemur 10.0413 13.7701 17.5227
rtibia 27.1669
rfoot -28.9695 -22.2335
rtoes -3.42943
lfemur -5.59824 -13.281 -18.0494
ltibia 40.1072
lfoot -9.2546 -1.92764
ltoes 8.56559
216
root -0.333184 17.6032 0.192456 -28.8622 -84.0571 18.7147
lowerback 9.69866 0.382695 1.26898
upperback -3.79028 0.280636 -3.90208
thorax -9.49675 -0.108733 -4.95785
lowerneck 13.1459 -2.39568 1.52957
upperneck 6.75284 -3.30704 0.295707
head -0.0682644 -1.76469 -0.0336853
rclavicle -1.8487e-014 1.51076e-014
rhumerus -104.177 -179.301 113.648
rradius 19.1771
rwrist 28.3429
rhand -14.9798 370.029
rfingers 7.12502
rthumb 11.1843 -19.6526
lclavicle -1.8487e-014 1.51076e-014
lhumerus -136.38 206.74 -107.473
lradius 79.6808
lwrist 18.9001
lhand -21.2209 362.474
lfingers 7.12502
lthumb 5.16106 32.3907
rfemur 9.94149 13.6636 17.5301
rtibia 27.2593
rfoot -28.9298 -22.0966
rtoes -3.59927
lfemur -5.56774 -13.2415 -17.9827
ltibia 40.0882
lfoot -9.58447 -2.04224
ltoes 8.41937
217
root -0.322224 17.5921 0.191142 -28.3967 -84.153 18.2652
lowerback 9.73229 0.34336 1.26137
upperback -3.79738 0.235349 -3.82184
thorax -9.52837 -0.127168 -4.85941
lowerneck 13.0581 -2.37291 1.56478
upperneck 6.74396 -3.26674 0.0881213
head -0.0613979 -1.74006 -0.105823
rclavicle 8.54774e-015 -1.35174e-014
rhumerus -105.464 -179.8 115.59
rradius 20.878
rwrist 26.1839
rhand -15.3507 370.081
rfingers 7.12502
rthumb 10.8264 -19.6199
lclavicle 8.54774e-015 -1.35174e-014
lhumerus -137.464 206.663 -107.096
lradius 80.3021
lwrist 18.2524
lhand -21.1445 362.283
lfingers 7.12502
lthumb 5.23486 32.1986
rfemur 9.82387 13.5636 17.5563
rtibia 27.3548
rfoot -28.9163 -21.9633
rtoes -3.74788
lfemur -5.5441 -13.19 -17.9008
ltibia 40.0694
lfoot -9.91911 -2.13804
ltoes 8.21711
218
root -0.311888 17.5805 0.189628 -28.0109 -84.2344 17.9056
lowerback 9.74328 0.295566 1.21808
upperback -3.79497 0.175999 -3.72499
thorax -9.53721 -0.148802 -4.71913
lowerneck 12.9738 -2.34404 1.58454
upperneck 6.69495 -3.21794 -0.147728
head -0.0681197 -1.71077 -0.184051
rclavicle 1.21259e-014 -2.8625e-014
rhumerus -106.781 -180.342 117.251
rradius 22.6677
rwrist 24.3422
rhand -15.7803 370.166
rfingers 7.12502
rthumb 10.4121 -19.5563
lclavicle 1.21259e-014 -2.8625e-014
lhumerus -138.548 206.512 -106.681
lradius 80.9304
lwrist 17.6352
lhand -20.9942 362.125
lfingers 7.12502
lthumb 5.37994 32.0364
rfemur 9.69825 13.4282 17.5469
rtibia 27.4493
rfoot -28.8963 -21.8083
rtoes -3.91825
lfemur -5.53037 -13.134 -17.8299
ltibia 40.0512
lfoot -10.2368 -2.24796
ltoes 8.12533
219
root -0.301012 17.5679 0.188057 -27.4719 -84.322 17.394
lowerback 9.72705 0.244956 1.20548
upperback -3.77032 0.116581 -3.64191
thorax -9.50539 -0.171759 -4.6101
lowerneck 12.8563 -2.30766 1.64533
upperneck 6.64488 -3.15384 -0.388301
head -0.0705019 -1.67265 -0.271499
rclavicle 8.54774e-015 3.10104e-014
rhumerus -108.099 -180.849 118.353
rradius 24.472
rwrist 23.0403
rhand -16.2734 370.36
rfingers 7.12502
rthumb 9.93643 -19.3855
lclavicle 8.54774e-015 3.10104e-014
lhumerus -139.618 206.347 -106.293
lradius 81.5932
lwrist 17.0046
lhand -20.8018 362.044
lfingers 7.12502
lthumb 5.56568 31.951
rfemur 9.57449 13.2844 17.5583
rtibia 27.539
rfoot -28.9208 -21.6488
rtoes -4.07857
lfemur -5.52454 -13.083 -17.7415
ltibia 40.0399
lfoot -10.596 -2.37302
ltoes 7.97803
220
root -0.289672 17.5533 0.186609 -26.7871 -84.4164 16.7418
lowerback 9.68426 0.19492 1.19551
upperback -3.71846 0.0611808 -3.54244
thorax -9.42735 -0.190828 -4.48432
lowerneck 12.7131 -2.27408 1.71668
upperneck 6.5274 -3.08856 -0.669759
head -0.0910922 -1.63214 -0.373249
rclavicle 2.18663e-015 -3.81667e-014
rhumerus -109.477 -181.354 119.235
rradius 26.402
rwrist 21.9961
rhand -16.7594 370.532
rfingers 7.12502
rthumb 9.46754 -19.2354
lclavicle 2.18663e-015 -3.81667e-014
lhumerus -140.695 206.145 -105.891
lradius 82.3125
lwrist 16.3869
lhand -20.5666 361.968
lfingers 7.12502
lthumb 5.79281 31.8684
rfemur 9.43502 13.1071 17.5608
rtibia 27.6301
rfoot -28.9359 -21.4017
rtoes -4.15743
lfemur -5.51857 -13.0635 -17.6471
ltibia 40.0289
lfoot -10.983 -2.4785
ltoes 7.89119
221
root -0.27801 17.5372 0.185612 -26.1149 -84.5142 16.0859
lowerback 9.64013 0.141148 1.20611
upperback -3.63991 0.00273806 -3.45794
thorax -9.31959 -0.212396 -4.38557
lowerneck 12.5439 -2.23577 1.81548
upperneck 6.39217 -3.01359 -0.951214
head -0.11339 -1.5859 -0.480326
rclavicle 1.51076e-014 -3.33958e-014
rhumerus -110.941 -181.849 119.783
rradius 28.44
rwrist 21.156
rhand -17.257 370.774
rfingers 7.12502
rthumb 8.98738 -19.0146
lclavicle 1.51076e-014 -3.33958e-014
lhumerus -141.805 205.94 -105.51
lradius 83.0819
lwrist 15.753
lhand -20.3113 361.982
lfingers 7.12502
lthumb 6.03932 31.8762
rfemur 9.32107 12.9439 17.5681
rtibia 27.7238
rfoot -29.0309 -21.0781
rtoes -4.08363
lfemur -5.4964 -12.9927 -17.5493
ltibia 40.0245
lfoot -11.4059 -2.61925
ltoes 7.79175
